P3
#Ma premiere image
4 3
255
0 0 0
0 0 255
100 100 100
100 100 180
255 0 0
0 255 0
0 0 255
100 180 100
255 255 0
255 0 255
0 255 255
180 100 100
